<svg xmlns="http://www.w3.org/2000/svg" xmlns:xlink="http://www.w3.org/1999/xlink" width="3840" zoomAndPan="magnify" viewBox="0 0 2880 1619.99993" height="2160" preserveAspectRatio="xMidYMid meet" version="1.0"><path stroke-linecap="butt" transform="matrix(0.75, 0.000000000000000146, -0.000000000000000146, 0.75, 142.547378, 185.861698)" fill="none" stroke-linejoin="miter" d="M -0.000670831 1.002111 L 3495.124626 1.002111 " stroke="#ffffff" stroke-width="2" stroke-opacity="1" stroke-miterlimit="4"/><path stroke-linecap="butt" transform="matrix(0.75, 0, 0, 0.75, 2763.121004, 185.861698)" fill="none" stroke-linejoin="miter" d="M 92.895961 1555.710577 L 92.895961 26.002113 C 92.895961 12.194821 81.703252 1.002111 67.895959 1.002111 L 0.000120069 1.002111 " stroke="#ffffff" stroke-width="2" stroke-opacity="1" stroke-miterlimit="4"/><path stroke-linecap="butt" transform="matrix(0.75, 0, 0, 0.75, 42.977845, 185.836663)" fill="none" stroke-linejoin="miter" d="M 0.99829 1712.686677 L 0.99829 25.999034 C 0.99829 12.191741 12.190999 0.999032 25.998292 0.999032 L 132.758718 0.999032 " stroke="#ffffff" stroke-width="2" stroke-opacity="1" stroke-miterlimit="4"/><path stroke-linecap="butt" transform="matrix(0.75, 0, 0, 0.75, 42.977845, 1465.450512)" fill="none" stroke-linejoin="miter" d="M 0.99829 -0.00172382 L 0.99829 108.675369 C 0.99829 122.482662 12.190999 133.675371 25.998292 133.675371 L 2775.045401 133.675371 " stroke="#ffffff" stroke-width="2" stroke-opacity="1" stroke-miterlimit="4"/><path stroke-linecap="butt" transform="matrix(0.75, 0, 0, 0.75, 2124.260282, 1309.008973)" fill="none" stroke-linejoin="miter" d="M 944.710329 -0.00154719 L 944.710329 125.857838 C 944.710329 143.529715 930.382203 157.857841 912.710327 157.857841 L 129.783177 157.857841 C 112.1113 157.857841 97.783174 172.185967 97.783174 189.857844 L 97.783174 310.264104 C 97.783174 327.935981 83.455048 342.264107 65.783171 342.264107 L 0.00191577 342.264107 " stroke="#ffffff" stroke-width="2" stroke-opacity="1" stroke-miterlimit="4"/></svg>